<mxfile host="app.diagrams.net" agent="Mozilla/5.0 (Windows NT 10.0; Win64; x64) AppleWebKit/537.36 (KHTML, like Gecko) Chrome/128.0.0.0 Safari/537.36 OPR/114.0.0.0" version="25.0.3">
  <diagram name="Strona-1" id="1fp6Y6GiHqXWXqIZJLhr">
    <mxGraphModel dx="1633" dy="763" grid="1" gridSize="10" guides="1" tooltips="1" connect="1" arrows="1" fold="1" page="1" pageScale="1" pageWidth="827" pageHeight="1169" math="0" shadow="0">
      <root>
        <mxCell id="0" />
        <mxCell id="1" parent="0" />
        <mxCell id="J2g4_v77NObNhyxWgJ6G-6" value="Seller" style="swimlane;fontStyle=1;align=center;verticalAlign=top;childLayout=stackLayout;horizontal=1;startSize=26;horizontalStack=0;resizeParent=1;resizeParentMax=0;resizeLast=0;collapsible=1;marginBottom=0;whiteSpace=wrap;html=1;" vertex="1" parent="1">
          <mxGeometry x="40" y="280" width="330" height="250" as="geometry" />
        </mxCell>
        <mxCell id="J2g4_v77NObNhyxWgJ6G-7" value="&lt;div&gt;- sellerName: String&lt;/div&gt;&lt;div&gt;- sellerAddress: String&lt;/div&gt;&lt;div&gt;- products: Product[]&lt;/div&gt;&lt;div&gt;- product_quantities: int[]&lt;/div&gt;&lt;div&gt;- customer: Customer&lt;/div&gt;" style="text;strokeColor=none;fillColor=none;align=left;verticalAlign=top;spacingLeft=4;spacingRight=4;overflow=hidden;rotatable=0;points=[[0,0.5],[1,0.5]];portConstraint=eastwest;whiteSpace=wrap;html=1;" vertex="1" parent="J2g4_v77NObNhyxWgJ6G-6">
          <mxGeometry y="26" width="330" height="84" as="geometry" />
        </mxCell>
        <mxCell id="J2g4_v77NObNhyxWgJ6G-8" value="" style="line;strokeWidth=1;fillColor=none;align=left;verticalAlign=middle;spacingTop=-1;spacingLeft=3;spacingRight=3;rotatable=0;labelPosition=right;points=[];portConstraint=eastwest;strokeColor=inherit;" vertex="1" parent="J2g4_v77NObNhyxWgJ6G-6">
          <mxGeometry y="110" width="330" height="8" as="geometry" />
        </mxCell>
        <mxCell id="J2g4_v77NObNhyxWgJ6G-9" value="+ getName(): String&lt;div&gt;+ setName(): void&lt;/div&gt;&lt;div&gt;+ getAddress(): String&lt;/div&gt;&lt;div&gt;+ setAddress(): void&lt;/div&gt;&lt;div&gt;+ getProducts(): Product[]&lt;/div&gt;&lt;div&gt;+ setProducts(): void&lt;/div&gt;&lt;div&gt;+ setProductQuantities(): void&lt;/div&gt;&lt;div&gt;+ getProductQuantities(): int[]&lt;/div&gt;" style="text;strokeColor=none;fillColor=none;align=left;verticalAlign=top;spacingLeft=4;spacingRight=4;overflow=hidden;rotatable=0;points=[[0,0.5],[1,0.5]];portConstraint=eastwest;whiteSpace=wrap;html=1;" vertex="1" parent="J2g4_v77NObNhyxWgJ6G-6">
          <mxGeometry y="118" width="330" height="132" as="geometry" />
        </mxCell>
        <mxCell id="J2g4_v77NObNhyxWgJ6G-10" value="Customer" style="swimlane;fontStyle=1;align=center;verticalAlign=top;childLayout=stackLayout;horizontal=1;startSize=26;horizontalStack=0;resizeParent=1;resizeParentMax=0;resizeLast=0;collapsible=1;marginBottom=0;whiteSpace=wrap;html=1;" vertex="1" parent="1">
          <mxGeometry x="40" y="680" width="330" height="200" as="geometry" />
        </mxCell>
        <mxCell id="J2g4_v77NObNhyxWgJ6G-11" value="- customerName: String&lt;div&gt;- customerAddress: String&lt;/div&gt;&lt;div&gt;- boughtProducts: Product[]&lt;/div&gt;&lt;div&gt;- boughtProductsQuantities: String[]&lt;/div&gt;&lt;div&gt;- seller: Seller&lt;/div&gt;" style="text;strokeColor=none;fillColor=none;align=left;verticalAlign=top;spacingLeft=4;spacingRight=4;overflow=hidden;rotatable=0;points=[[0,0.5],[1,0.5]];portConstraint=eastwest;whiteSpace=wrap;html=1;" vertex="1" parent="J2g4_v77NObNhyxWgJ6G-10">
          <mxGeometry y="26" width="330" height="84" as="geometry" />
        </mxCell>
        <mxCell id="J2g4_v77NObNhyxWgJ6G-12" value="" style="line;strokeWidth=1;fillColor=none;align=left;verticalAlign=middle;spacingTop=-1;spacingLeft=3;spacingRight=3;rotatable=0;labelPosition=right;points=[];portConstraint=eastwest;strokeColor=inherit;" vertex="1" parent="J2g4_v77NObNhyxWgJ6G-10">
          <mxGeometry y="110" width="330" height="8" as="geometry" />
        </mxCell>
        <mxCell id="J2g4_v77NObNhyxWgJ6G-13" value="+ buy(): void&lt;div&gt;+ setSeller(): void&lt;/div&gt;&lt;div&gt;+ getSeller(): Seller&lt;/div&gt;" style="text;strokeColor=none;fillColor=none;align=left;verticalAlign=top;spacingLeft=4;spacingRight=4;overflow=hidden;rotatable=0;points=[[0,0.5],[1,0.5]];portConstraint=eastwest;whiteSpace=wrap;html=1;" vertex="1" parent="J2g4_v77NObNhyxWgJ6G-10">
          <mxGeometry y="118" width="330" height="82" as="geometry" />
        </mxCell>
        <mxCell id="J2g4_v77NObNhyxWgJ6G-14" value="Product" style="swimlane;fontStyle=1;align=center;verticalAlign=top;childLayout=stackLayout;horizontal=1;startSize=26;horizontalStack=0;resizeParent=1;resizeParentMax=0;resizeLast=0;collapsible=1;marginBottom=0;whiteSpace=wrap;html=1;" vertex="1" parent="1">
          <mxGeometry x="530" y="247" width="240" height="338" as="geometry" />
        </mxCell>
        <mxCell id="J2g4_v77NObNhyxWgJ6G-15" value="- name: String&lt;div&gt;- country_of_origin: String&lt;/div&gt;&lt;div&gt;- date_of_production: LocalDate&lt;/div&gt;&lt;div&gt;- weight_in_kg: int&lt;/div&gt;&lt;div&gt;- dimension_x: int&lt;/div&gt;&lt;div&gt;- dimension_y: int&lt;/div&gt;&lt;div&gt;- dimension_z: int&lt;/div&gt;" style="text;strokeColor=none;fillColor=none;align=left;verticalAlign=top;spacingLeft=4;spacingRight=4;overflow=hidden;rotatable=0;points=[[0,0.5],[1,0.5]];portConstraint=eastwest;whiteSpace=wrap;html=1;" vertex="1" parent="J2g4_v77NObNhyxWgJ6G-14">
          <mxGeometry y="26" width="240" height="114" as="geometry" />
        </mxCell>
        <mxCell id="J2g4_v77NObNhyxWgJ6G-16" value="" style="line;strokeWidth=1;fillColor=none;align=left;verticalAlign=middle;spacingTop=-1;spacingLeft=3;spacingRight=3;rotatable=0;labelPosition=right;points=[];portConstraint=eastwest;strokeColor=inherit;" vertex="1" parent="J2g4_v77NObNhyxWgJ6G-14">
          <mxGeometry y="140" width="240" height="8" as="geometry" />
        </mxCell>
        <mxCell id="J2g4_v77NObNhyxWgJ6G-17" value="+ setName(): void&lt;div&gt;+ getName(): String&lt;/div&gt;&lt;div&gt;+ setDateOfProduction(): void&lt;/div&gt;&lt;div&gt;+ getDateOfProduction(): LocalDateTime&lt;/div&gt;&lt;div&gt;+ getCountryOfOrigin(): String&lt;/div&gt;&lt;div&gt;+ setCountryOfOrigin(): void&lt;/div&gt;&lt;div&gt;+ setWeight(): void&lt;/div&gt;&lt;div&gt;+ getWeight(): int&lt;/div&gt;&lt;div&gt;+ setDimensions(): void&lt;/div&gt;&lt;div&gt;+ getDimensions(): int[]&lt;/div&gt;" style="text;strokeColor=none;fillColor=none;align=left;verticalAlign=top;spacingLeft=4;spacingRight=4;overflow=hidden;rotatable=0;points=[[0,0.5],[1,0.5]];portConstraint=eastwest;whiteSpace=wrap;html=1;" vertex="1" parent="J2g4_v77NObNhyxWgJ6G-14">
          <mxGeometry y="148" width="240" height="190" as="geometry" />
        </mxCell>
        <mxCell id="J2g4_v77NObNhyxWgJ6G-19" value="" style="endArrow=open;endFill=1;endSize=12;html=1;rounded=0;" edge="1" parent="1">
          <mxGeometry width="160" relative="1" as="geometry">
            <mxPoint x="370" y="390" as="sourcePoint" />
            <mxPoint x="530" y="390" as="targetPoint" />
          </mxGeometry>
        </mxCell>
        <mxCell id="J2g4_v77NObNhyxWgJ6G-30" value="" style="endArrow=none;html=1;edgeStyle=orthogonalEdgeStyle;rounded=0;entryX=0.522;entryY=-0.005;entryDx=0;entryDy=0;entryPerimeter=0;exitX=0.446;exitY=1.024;exitDx=0;exitDy=0;exitPerimeter=0;" edge="1" parent="1" source="J2g4_v77NObNhyxWgJ6G-9" target="J2g4_v77NObNhyxWgJ6G-10">
          <mxGeometry relative="1" as="geometry">
            <mxPoint x="130" y="600" as="sourcePoint" />
            <mxPoint x="260" y="630" as="targetPoint" />
            <Array as="points">
              <mxPoint x="190" y="533" />
              <mxPoint x="190" y="605" />
              <mxPoint x="212" y="605" />
            </Array>
          </mxGeometry>
        </mxCell>
      </root>
    </mxGraphModel>
  </diagram>
</mxfile>
